<svg xmlns="http://www.w3.org/2000/svg" viewBox="0 0 100 100">
  <!-- Main yarn ball -->
  <circle cx="50" cy="50" r="40" fill="#ffb703"/>

  <!-- Shadow/depth -->
  <ellipse cx="50" cy="55" rx="38" ry="35" fill="#e09f00" opacity="0.3"/>

  <!-- Yarn strands wrapping around -->
  <path d="M 15 40 Q 30 35 50 38 Q 70 41 85 35" stroke="#d68f00" stroke-width="2.5" fill="none"/>
  <path d="M 12 50 Q 30 45 50 47 Q 70 49 88 44" stroke="#d68f00" stroke-width="2.5" fill="none"/>
  <path d="M 15 60 Q 30 55 50 57 Q 70 59 85 53" stroke="#d68f00" stroke-width="2.5" fill="none"/>

  <!-- Cross-wrapping yarn -->
  <path d="M 30 20 Q 35 35 40 50 Q 43 65 45 80" stroke="#d68f00" stroke-width="2" fill="none" opacity="0.7"/>
  <path d="M 60 18 Q 58 35 55 50 Q 53 65 50 82" stroke="#d68f00" stroke-width="2" fill="none" opacity="0.7"/>

  <!-- Highlight shine -->
  <ellipse cx="38" cy="35" rx="12" ry="8" fill="#ffd966" opacity="0.4"/>

  <!-- Loose yarn end -->
  <path d="M 75 25 Q 85 20 95 15" stroke="#d68f00" stroke-width="3" fill="none" stroke-linecap="round"/>
  <path d="M 95 15 Q 97 10 96 5" stroke="#d68f00" stroke-width="2.5" fill="none" stroke-linecap="round"/>
</svg>
